<mxfile host="app.diagrams.net" modified="2021-05-13T07:44:54.024Z" agent="5.0 (X11)" etag="bO-anU3AJABdUxo2uhG-" version="14.6.12" type="github">
  <diagram id="34vrvRRAlJCRwnYxmeFD" name="Page-1">
    <mxGraphModel dx="1350" dy="804" grid="1" gridSize="10" guides="1" tooltips="1" connect="1" arrows="1" fold="1" page="1" pageScale="1" pageWidth="827" pageHeight="1169" math="0" shadow="0">
      <root>
        <mxCell id="0" />
        <mxCell id="1" parent="0" />
        <mxCell id="0n9djQx3XLWaUtbw8gn7-1" value="Внешние сервисы" style="rounded=0;whiteSpace=wrap;html=1;fontSize=24;verticalAlign=top;" vertex="1" parent="1">
          <mxGeometry x="990" y="40" width="390" height="400" as="geometry" />
        </mxCell>
        <mxCell id="0n9djQx3XLWaUtbw8gn7-2" value="Разрабатываемая система" style="rounded=0;whiteSpace=wrap;html=1;verticalAlign=top;fontSize=24;" vertex="1" parent="1">
          <mxGeometry x="430" y="40" width="500" height="400" as="geometry" />
        </mxCell>
        <mxCell id="0n9djQx3XLWaUtbw8gn7-3" value="Клиенты" style="rounded=0;whiteSpace=wrap;html=1;fontSize=24;verticalAlign=top;" vertex="1" parent="1">
          <mxGeometry y="40" width="370" height="400" as="geometry" />
        </mxCell>
        <mxCell id="0n9djQx3XLWaUtbw8gn7-4" value="Сервисы платежной системы" style="image;html=1;image=img/lib/clip_art/computers/Server_Rack_128x128.png;fontSize=24;" vertex="1" parent="1">
          <mxGeometry x="1145" y="110" width="80" height="80" as="geometry" />
        </mxCell>
        <mxCell id="0n9djQx3XLWaUtbw8gn7-5" value="Житель города" style="shape=umlActor;verticalLabelPosition=bottom;verticalAlign=top;html=1;outlineConnect=0;" vertex="1" parent="1">
          <mxGeometry x="60" y="80" width="30" height="60" as="geometry" />
        </mxCell>
        <mxCell id="0n9djQx3XLWaUtbw8gn7-6" value="Гость города" style="shape=umlActor;verticalLabelPosition=bottom;verticalAlign=top;html=1;outlineConnect=0;" vertex="1" parent="1">
          <mxGeometry x="60" y="270" width="30" height="60" as="geometry" />
        </mxCell>
      </root>
    </mxGraphModel>
  </diagram>
</mxfile>
